<svg xmlns="http://www.w3.org/2000/svg" x="0px" y="0px" width="70" height="70" viewBox="0 0 100 100">
  <path fill="#1d1d1b" d="M79.362,10H30.638C23.118,10,17,16.118,17,23.639v55.223C17,87.209,23.791,94,32.138,94h47.225C83.574,94,87,90.574,87,86.362V17.639C87,13.427,83.574,10,79.362,10z" opacity=".35"></path>
  <path fill="#f2f2f2" d="M77.362,8H28.638C21.118,8,15,14.118,15,21.639v55.223C15,85.209,21.791,92,30.138,92h47.225C81.574,92,85,88.574,85,84.362V15.639C85,11.427,81.574,8,77.362,8z"></path>
  <path fill="#f4665c" d="M79,85H29.191C24.667,85,21,81.333,21,76.809V22.191C21,17.667,24.667,14,29.191,14H79V85z"></path>
  <path fill="#40396e" d="M31,81V16h-3.089C25.199,16,23,18.199,23,20.911v59.914c0,1.762,1.412,3.2,3.174,3.232L78,85v-4H31z" opacity=".35"></path>
  <path fill="#d9eeff" d="M77,69H31.844C28.616,69,26,71.686,26,75l0,0c0,3.314,2.616,6,5.844,6H77V69z"></path>
  <rect width="39" height="2" x="38" y="76" fill="#40396e" opacity=".35"></rect>
  <rect width="45" height="2" x="32" y="72" fill="#40396e" opacity=".35"></rect>
  <path fill="#f9b84f" d="M70,23v39H38V23H70 M73,20H35v45h38V20L73,20z"></path>
  <path fill="#f9b84f" d="M51.5,55.562c0-0.816,0.667-1.563,2-1.563h2c1.333,0,2,0.746,2,1.563c0,1.875-3,3.438-3,3.438S51.5,57.437,51.5,55.562zM63,39.5h-2V37c0-0.552-0.448-1-1-1h-2.5v-2c0-0.552-0.448-1-1-1h-4c-0.552,0-1,0.448-1,1v2H49c-0.552,0-1,0.448-1,1v2.5h-2c-0.552,0-1,0.448-1,1v4c0,0.552,0.448,1,1,1h2V48c0,0.552,0.448,1,1,1h2.5v2c0,0.552,0.448,1,1,1h4c0.552,0,1-0.448,1-1v-2H60c0.552,0,1-0.448,1-1v-2.5h2c0.552,0,1-0.448,1-1v-4C64,39.948,63.552,39.5,63,39.5z M57.5,29.438c0,0.816-0.667,1.563-2,1.563h-2c-1.333,0-2-0.746-2-1.563c0-1.875,3-3.438,3-3.438S57.5,27.563,57.5,29.438z"></path>
  <path fill="#40396e" d="M77.362,87H30.138C24.548,87,20,82.452,20,76.861V21.639C20,16.875,23.875,13,28.638,13h48.724C78.816,13,80,14.184,80,15.639v68.723C80,85.816,78.817,87,77.362,87zM28.638,16C25.529,16,23,18.529,23,21.639v55.223C23,80.798,26.202,84,30.138,84H77V16H28.638z"></path>
</svg>
